<?xml version="1.0" encoding="UTF-8"?>
<svg id="Capa_1" data-name="Capa 1" xmlns="http://www.w3.org/2000/svg" viewBox="0 0 142.87 178.28">
  <defs>
    <style>
      .cls-1 {
        fill: #42674e;
      }
    </style>
  </defs>
  <path class="cls-1" d="M39.59,135.82l4.72,7.99-1.48.94-4.12-8.01.88-.93ZM43.35,152.85l-1.17,1.23,8.08,10.01.88-.93-7.79-10.32ZM78.39,136.29c-.8.02-1.61-.16-2.42-.54-.2.21-.14,2.21.16,6.01.4-.01,1.05.02,1.96.1.9.08,1.56.11,1.96.1-.82-.78-1.37-2.67-1.65-5.67ZM83.41,132.85c.09,3.6.14,5.41.14,5.41l2.34-2.47c-1.64-1.56-2.47-2.54-2.48-2.94ZM141.84,78.75c.73-3.41.92-5.3.92-5.3,0,0,.07-.74.11-2.07-.49,2.18-.83,4.63-1.03,7.36ZM72.99,174.34l.02-.29-.56-.05-.02.29.56.05ZM74.41,164.2l-.16-.3-.99.59.07.29,1.09-.58ZM73.6,162.69l-.19-.02-.45.83.18.11.45-.92ZM73.92,161.18l-.28-.02-.39,1.22.19.02.48-1.21ZM82.21,165.62l-.28-.02-.24.65.28.02.24-.65ZM73.58,32.68l.31-8.13c-.13-.01-.3.93-.52,2.83.24,2.32.31,4.09.21,5.3ZM69.72,59.32c-.12.69-.63,1.87-1.52,3.52-.36.55-.69,1.16-1,1.83.42-1.25,1.08-3.04,1.97-5.4l.56.05ZM76.2,173.18l-.48.15.02-.29.39-.16.07.29ZM78.41,173.75c-.06,0-.16.03-.29.12-.13.08-.29.12-.48.1l-.94-.08c.27-.23.6-.38.97-.3l.74.16ZM70.51,54.4l-.24.65-.18-.11.14-.57.28.03ZM79.19,163.45l-.42.54-.17-.21.42-.54.17.21ZM80.48,163.75l-.28-.02.04-.48.28.02-.04.48ZM71.8,45.87l-.19-.02.04-.48.19.02-.04.48ZM72.65,41.43l-.18,1.04-.28-.02.18-1.04.28.02ZM72.75,40.19l-.28-.02.11-1.33.28.02-.11,1.33ZM83.98,38.94l-.28-.02.07-.86.28.02-.07.86ZM71.06,77.33v-.15c-.87-.89-2.47-2.48-4.48-4.45v.39c2,1.9,3.6,3.41,4.48,4.21ZM71,78.36v-.17s-4.45-4.37-4.45-4.37v.47c1.88,1.75,3.45,3.19,4.45,4.07ZM65.61,103.97l3.7,4.02,1.66-29.07c-.98-.91-2.55-2.39-4.44-4.18-.18,6.67-.53,17.39-.91,29.23ZM66.44,73l.02-.39-1.52-1.49v.44s1.51,1.44,1.51,1.44ZM66.4,74.16l.02-.48-1.51-1.48-.02.55,1.51,1.4ZM63.88,102.09l1.28,1.39c.51-11.75.95-22.32,1.22-28.87l-1.51-1.43c-.18,5.4-.56,16.32-.99,28.91ZM66.85,156.25l1.37-28.9.75-13.19-3.56-3.87c-.39,12,.13,50.68,1.44,45.96ZM64.18,148.06c.31-.2.61-.46.91-.77.47-9.94-.68-26.59-.2-37.57l-1.23-1.34c-.39,11.59.85,29.12.52,39.67ZM61.81,146.96l1.13,1.07c.5-10.95-.58-28.75-.03-40.45l-1.91-2.07c-.28,11.7,1.05,29.96.8,41.46ZM50.16,53.52l.36-.35c-.95-.96-1.64-1.65-1.99-1.98l-1.18-1.15c.75.93,1.51,1.85,2.26,2.75.2.24.38.49.55.73ZM37.55,128.1l3.27-2.98,18.64,23.77,1.16-3.06.45.43c.36-11.53-.86-29.66-.48-41.21l-21.43-23.29,9.27,7.53,4.32.71,8.04,8.74c.48-14.66.62-8.24.56-8.23.18-.11.15-6.29-.2,8.62l2.05,2.23c.6-12.48,1.13-23.15,1.47-28.37-8.2-7.79-10.1-9.92-10.12-9.88.02-.16,1.92,1.84,10.14,9.48l.04-.54c-8.2-8.02-10.23-10.53-10.32-10.82-.01-.03,2.2,2.43,10.37,10.19l.03-.43c-8.18-8.02-10.45-10.67-10.51-10.72.03-.08,1.56,1.7,9.72,9.47l-14.26-15.85.18-.17c-1.09-1.35-1.84-2.22-2.23-2.62,0,0,.04,0,.13.03-.02-.05-.04-.09-.07-.13-.03-.03-.08-.06-.13-.08,0,.03-.01.07-.04.12-.03.04-.03.07-.02.09-.02-.02-.04-.07-.09-.14-.04-.08-.08-.14-.11-.17l-3.68-3.42c-.59-.55-.91-1.05-1.08-1.4-.02-.02-.05-.06-.1-.11,0-.07.02-.17.06-.3-.03-.07-.06-.12-.07-.13,0,0,0,0,.03-.02.02-.05.04-.08.05-.1.02.02.07.04.18.08l3.9,3.66s-.52-.72-1.78-1.94c-.67-.65-1.08-.89-1.08-.89-.24-.25-.47-.56-.7-.95.07.04.16.08.28.14,0-.17-.12-.37-.37-.6.17-.06.28-.12.34-.17,0-.04-.01-.15-.04-.36l.18.18c.07-.03.19-.13.36-.29.11-.1.13-.18.08-.23.07.1.14.17.23.19.02-.02-.05-.15-.2-.42-.09-.16-.08-.28,0-.36l.15.16c-.02.15-.02.27,0,.36l.2.11c.05-.15.05-.4-.01-.74.12.12.23.26.35.37.16.15.34.12.52-.08.1.21.2.37.3.47.17.18.73.62,1.64,1.37.15.12.27.28.4.42.15.16.29.22.41.17l2.09,2.21c.62.65,1.45,1.67,2.49,3.06l.45-.44,18.47,20.2,1.37-24.05c-.57,2.91-1.27,5.46-2.1,7.64,1.46-8.38,2.26-13.63,2.37-15.73,0,0,.06.1.16.3v-.02s.06-.73.06-.73c-.07.05-.16.09-.29.11-.13.02-.19.07-.2.13,0-.06.05-.2.13-.42.08-.21.13-.39.14-.51l.27-13.12c.18-2.1.46-3.61.86-4.54,0-.06.02-.19.03-.38.14-.12.37-.26.7-.42.08-.19.12-.31.13-.37,0,0,.03,0,.09,0,.13-.05.23-.08.29-.07,0,.07.04.23.15.49l-.07,3.09.29.02c.1-.8.29-1.68.6-2.65.05.2.12.46.22.79.34-.29.52-.88.53-1.78.42.23.72.35.91.36.07-.06.28-.3.63-.71l-.06.67c.18.08.58.14,1.21.2.37.03.57-.05.58-.24-.09.31-.08.57.03.77.06,0,.22-.37.47-1.11.16-.44.4-.64.71-.61l-.05.57c-.33.23-.57.43-.71.61l.14.59c.39-.16.87-.6,1.43-1.32l-.04.48.4-.42.24,6.62c.03.72.08,1.55.13,2.49-.04.51-.09,1.02-.13,1.53-.05.57.08.93.38,1.09l-.67,7.91c-.24,2.86-.98,7.28-2.26,13.25-.24,1.1-.64,6.63-1.13,14.66l9.81-7.06,14.02-15.93,3.08,3.18-27.29,26.34c-.52,8.89-1.1,19.68-1.69,30.65l24.24-22.22,3.59.32-28.18,28.59c-3.29-1.09-1.56,27.48-2.03,37.88l27.16-21.94,2.79,3.44-30.29,24.48c-.3,5-.51,8.13-.61,8.45,0,0-.12.31-.36.93-.07.18-.09.31-.03.38.14-.11.33-.16.58-.14.06,0,.29.25.69.73l.37.03c.35-.35.53-.72.57-1.1,0,.06.05.2.16.4.25.02.39-.09.41-.35-.16.37-.6.81-1.34,1.33.49.11.87.14,1.12.1.25-.04.68-.18,1.26-.42.58-.24.95-.35,1.07-.34.12,0,.3.14.53.38.23.24.38.37.44.37.12.01.24-.06.35-.21.11-.15.22-.22.35-.21.56.05,1.36.34,2.38.87l-.08.95c0,.06-1,.68-2.98,1.86.11.2.2.3.26.31.19.01.38-.06.59-.24-.07.12-.11.22-.12.28-.13.05-.07.09.18.11.19.02.29-.07.3-.26.16.34.22.69.19,1.07-.03.38-.12.63-.25.75-.91.37-1.95,1.11-3.11,2.23-.06,0-.18-.06-.36-.17-.18-.11-.33-.17-.46-.18-.25-.02-.71.2-1.37.65,0,.07-.02.22-.04.48-.39.16-.72.36-.99.59-.13.05-.07.09.18.11.19.01.54-.08,1.06-.29-.32.1-.78.25-1.36.46-.15.24-.36.51-.63.81-.31-.03-.78,0-1.42.07l-.46.25.04.05.93,1.2.51-.26c-.16.09-.32.19-.48.3.65.83,1.2,1.53,1.65,2.09,13.22-10.78,23.9-21.64,32.54-32.06l3.5-10.17c-.12,1.9-.82,4.72-2.08,8.45,2.11-2.6,4.09-5.17,5.95-7.71l5.2-21.43c1.77-1.05,4.12-3.11,7.05-6.2-.39.41.64-2.32,3.09-8.2,1.52-3.25,3.59-8.31,6.21-15.2.54-2.22,1.32-6.95,2.33-14.19.84-6.24,1.45-9.56,1.84-9.97.59-.62.98-.83,1.19-.63.2.19.5.09.89-.33.15-.16.28-.32.41-.49-.7-5.81-2.2-12.98-5.29-20.31-2.31-3.85-5.49-9.11-9.53-15.76-1.91-2.29-4.05-4.5-6.46-6.6.36,1.06,1.05,2.47,2.07,4.22-.64-.56-1.14-.69-1.51-.37.28.88.69,2.11,1.26,3.69-1.23-1.8-2.27-3.76-3.14-5.88-.48-.38-1.21-.95-2.18-1.7-.38-1.1-.9-2.4-1.57-3.9-.57-.4-1.15-.79-1.75-1.18,2.9,6.34,5.68,11.76,8.35,16.24-1.42-1.48-3.4-3.59-5.92-6.35-.72-1.77-2.04-4.6-3.96-8.51-1.01-1.18-2.17-2.61-3.46-4.29C100.83,4.98,90.32,1.73,77.19.47c-3.99-.38-7.77-.52-11.36-.45-.48.19-1.29.47-2.45.84.62-.1,1.2-.35,1.74-.74.05-.03.09-.07.14-.09-2.22.06-4.36.2-6.43.42-.55.52-1.12,1.07-1.71,1.65.06.07.23.15.52.23.29.08.52.23.69.47-1.29-.34-2.28-.26-2.97.24-.38.28-.31.45.22.54-.55.05-1.68.41-3.41,1.08-.02.13-.09.27-.22.42-.12.15-.2.29-.22.42,2.41.11,4.07-.17,4.99-.83l2.63-1.91c.06-.4-.1-.46-.48-.18.54-.39,1.28-.64,2.25-.76-.46.33-1.13.97-2.02,1.91-.89.94-1.41,1.46-1.56,1.57-.23.17-.96.32-2.2.46-1.24.14-1.93.27-2.08.38-.23.16-.3.27-.2.32.09.05.03.15-.2.32-1.29.94-4.63,1.33-9.99,1.15,0,0-1.5-.54-4.5-1.62l-.61-.23c-13.94,6.45-22.92,17.18-28.6,27.96,1.11,5.63.92,9.9-.55,12.8-.4.41-.81.95-1.25,1.63-.88,2.76-1.49,4.16-1.83,4.17.51-.73.86-1.76,1.06-3.07-.94,0-1.75.24-2.43.75-.45.34-.67,1.03-.66,2.08.02,1.05.26,1.74.75,2.08-.3.23-.58.32-.85.28-.23.17-.17.48.16.93-.11-.15-.36-.09-.74.19-.15.11-.54,1.05-1.17,2.81-.44,1.22-.86,2.26-1.28,3.12-.45,3.64-.43,6.14-.19,6.83.41,4.23,1.23,8.61,2.38,13.06l.09-1.41,1.2-.03-.21,3.31-.58.02c.87,3.15,1.9,6.34,3.07,9.54l-.86-5.09,1.49-.34,1.42,8.38-.86.2c1.27,3.26,2.67,6.54,4.17,9.8l.88.41c.33,1.29.71,2.57,1.13,3.85,2.23,4.58,4.65,9.12,7.17,13.57l-2.71-10.95,1.49-.34,3.03,12.24-1.13.26c2.18,3.82,4.44,7.56,6.73,11.21,3.58,5.1,7.16,10.15,10.74,15.16,1.6-.04,2.5-.17,2.7-.37-8.7-10.59-14.12-22.17-16.26-34.74,1.53,4.57,4.29,10.71,8.31,18.42,6.67,9.84,12.58,17.2,17.72,22.08.82.78,1.62.76,2.4-.06-.73.77.07-2.02,2.38-8.35l-18.51-20.34ZM46.08,49.38l-2.24-2.16s.13.39.67.87c.67.59,1.25.95,1.57,1.29ZM54.28,60.51l.05.15-.08.02-.05-.16.08-.02ZM52.7,57.27c.17.21.39.65.62,1.33.08.24.16.49.27.76-.25-.44-.6-1.08-1.04-1.94l.16-.15ZM51.49,55.79l.12.24-.08.02-.13-.18.08-.07ZM49.39,53.25l-.05.05-.13-.13.05-.05.13.13ZM48.34,51.87l.25.32-.08.07-.25-.32.08-.07ZM48.01,51.53l-.08.08-.35-.37.08-.07.35.37ZM50.52,48.01l-.08.07-.23-.24.08-.07.23.24ZM49.66,47.1l-.08.07-.23-.24.08-.07.23.24ZM51.38,6.44c-1.12.23-3.06.36-5.83.4l-.13-.43-.21.67-2.85-.55c2.06-.21,5.06-.24,9.02-.09ZM61.51,5.01c.49,1.16.2,2.12-.86,2.9-.76.55-2.68.96-5.75,1.22-2.45.15-4.04.2-4.78.15,2.21-.33,5.54-.95,10-1.86.02-.13.08-.25.16-.38.09-.12.14-.25.16-.38-.85-.2-2.01-.28-3.5-.25,2.62-.39,4.01-.65,4.17-.76.23-.17.36-.38.4-.64ZM64.28,1.6c-.16.58-.04.9.35.97-1.45,1.05-2.67,1.77-3.68,2.15.08-.05.1-.22.08-.49-.03-.27,0-.44.08-.49l1.03-.75c.29-.09,1-.55,2.14-1.38ZM84.26,35.7l-.28-.02.07-.86.21.88Z"/>
</svg>